<svg width="18" height="7" viewBox="0 0 18 7" fill="none" xmlns="http://www.w3.org/2000/svg">
<path fill-rule="evenodd" clip-rule="evenodd" d="M9.0001 2.12402C7.57374 2.12402 6.17251 2.49952 4.93728 3.21275C3.70205 3.92599 2.67634 4.95184 1.96327 6.18717C1.79071 6.48612 1.40848 6.58858 1.10953 6.41602C0.81058 6.24345 0.708123 5.86122 0.880685 5.56227C1.70345 4.13689 2.88696 2.95322 4.31223 2.13025C5.7375 1.30728 7.3543 0.874023 9.0001 0.874023C10.6459 0.874023 12.2627 1.30728 13.688 2.13025C15.1132 2.95322 16.2968 4.13689 17.1195 5.56227C17.2921 5.86122 17.1896 6.24345 16.8907 6.41602C16.5917 6.58858 16.2095 6.48612 16.0369 6.18717C15.3239 4.95184 14.2982 3.92599 13.0629 3.21275C11.8277 2.49952 10.4265 2.12402 9.0001 2.12402Z" fill="white"/>
</svg>
